<svg width="14" height="14" viewBox="0 0 14 14" fill="none" xmlns="http://www.w3.org/2000/svg">
                                            <circle cx="7" cy="7" r="7" fill="#286855"></circle>
                                            <path d="M8.35355 4.35355C8.54882 4.15829 8.54882 3.84171 8.35355 3.64645C8.15829 3.45118 7.84171 3.45118 7.64645 3.64645L8.35355 4.35355ZM5 7L4.64645 6.64645C4.45118 6.84171 4.45118 7.15829 4.64645 7.35355L5 7ZM7.64645 10.3536C7.84171 10.5488 8.15829 10.5488 8.35355 10.3536C8.54882 10.1583 8.54882 9.84171 8.35355 9.64645L7.64645 10.3536ZM7.64645 3.64645L4.64645 6.64645L5.35355 7.35355L8.35355 4.35355L7.64645 3.64645ZM4.64645 7.35355L7.64645 10.3536L8.35355 9.64645L5.35355 6.64645L4.64645 7.35355Z" fill="white"></path>
                                        </svg>