<svg width="19" height="18" viewBox="0 0 19 18" fill="none" xmlns="http://www.w3.org/2000/svg">
                                        <path d="M2.01721 3C2.01721 2.80109 2.09623 2.61032 2.23688 2.46967C2.37753 2.32902 2.5683 2.25 2.76721 2.25H16.2672C16.4661 2.25 16.6569 2.32902 16.7975 2.46967C16.9382 2.61032 17.0172 2.80109 17.0172 3V7.125C16.5199 7.125 16.043 7.32254 15.6914 7.67417C15.3398 8.02581 15.1422 8.50272 15.1422 9C15.1422 9.49728 15.3398 9.97419 15.6914 10.3258C16.043 10.6775 16.5199 10.875 17.0172 10.875V15C17.0172 15.1989 16.9382 15.3897 16.7975 15.5303C16.6569 15.671 16.4661 15.75 16.2672 15.75H2.76721C2.5683 15.75 2.37753 15.671 2.23688 15.5303C2.09623 15.3897 2.01721 15.1989 2.01721 15V3ZM6.58096 14.25C6.65826 14.0303 6.80188 13.8399 6.99197 13.7053C7.18206 13.5706 7.40927 13.4983 7.64221 13.4983C7.87516 13.4983 8.10236 13.5706 8.29245 13.7053C8.48255 13.8399 8.62616 14.0303 8.70346 14.25H15.5172V12.024C14.9538 11.7448 14.4796 11.3137 14.1481 10.7794C13.8166 10.2451 13.6409 9.6288 13.6409 9C13.6409 8.3712 13.8166 7.7549 14.1481 7.22059C14.4796 6.68629 14.9538 6.25522 15.5172 5.976V3.75H8.70346C8.62616 3.96975 8.48255 4.16008 8.29245 4.29472C8.10236 4.42936 7.87516 4.50167 7.64221 4.50167C7.40927 4.50167 7.18206 4.42936 6.99197 4.29472C6.80188 4.16008 6.65826 3.96975 6.58096 3.75H3.51721V14.25H6.58096ZM7.64221 8.25C7.34384 8.25 7.05769 8.13147 6.84672 7.9205C6.63574 7.70952 6.51721 7.42337 6.51721 7.125C6.51721 6.82663 6.63574 6.54048 6.84672 6.3295C7.05769 6.11853 7.34384 6 7.64221 6C7.94058 6 8.22673 6.11853 8.43771 6.3295C8.64869 6.54048 8.76721 6.82663 8.76721 7.125C8.76721 7.42337 8.64869 7.70952 8.43771 7.9205C8.22673 8.13147 7.94058 8.25 7.64221 8.25ZM7.64221 12C7.34384 12 7.05769 11.8815 6.84672 11.6705C6.63574 11.4595 6.51721 11.1734 6.51721 10.875C6.51721 10.5766 6.63574 10.2905 6.84672 10.0795C7.05769 9.86853 7.34384 9.75 7.64221 9.75C7.94058 9.75 8.22673 9.86853 8.43771 10.0795C8.64869 10.2905 8.76721 10.5766 8.76721 10.875C8.76721 11.1734 8.64869 11.4595 8.43771 11.6705C8.22673 11.8815 7.94058 12 7.64221 12Z" fill="white"></path>
                                    </svg>