<svg width="14" height="14" viewBox="0 0 14 14" fill="none" xmlns="http://www.w3.org/2000/svg">
                                            <circle cx="7" cy="7" r="7" transform="rotate(-180 7 7)" fill="#286855"></circle>
                                            <path d="M5.64645 9.64645C5.45118 9.84171 5.45118 10.1583 5.64645 10.3536C5.84171 10.5488 6.15829 10.5488 6.35355 10.3536L5.64645 9.64645ZM9 7L9.35355 7.35355C9.54882 7.15829 9.54882 6.84171 9.35355 6.64645L9 7ZM6.35355 3.64645C6.15829 3.45118 5.84171 3.45118 5.64645 3.64645C5.45119 3.84171 5.45119 4.15829 5.64645 4.35355L6.35355 3.64645ZM6.35355 10.3536L9.35355 7.35355L8.64645 6.64645L5.64645 9.64645L6.35355 10.3536ZM9.35355 6.64645L6.35355 3.64645L5.64645 4.35355L8.64645 7.35355L9.35355 6.64645Z" fill="white"></path>
                                        </svg>