<svg width="13" height="16" viewBox="0 0 13 16" fill="none" xmlns="http://www.w3.org/2000/svg">
                                        <path d="M0.517212 15.875C0.517212 14.2837 1.14935 12.7576 2.27457 11.6324C3.39979 10.5071 4.92591 9.875 6.51721 9.875C8.10851 9.875 9.63463 10.5071 10.7599 11.6324C11.8851 12.7576 12.5172 14.2837 12.5172 15.875H11.0172C11.0172 14.6815 10.5431 13.5369 9.69919 12.693C8.85528 11.8491 7.71069 11.375 6.51721 11.375C5.32374 11.375 4.17915 11.8491 3.33523 12.693C2.49132 13.5369 2.01721 14.6815 2.01721 15.875H0.517212ZM6.51721 9.125C4.03096 9.125 2.01721 7.11125 2.01721 4.625C2.01721 2.13875 4.03096 0.125 6.51721 0.125C9.00346 0.125 11.0172 2.13875 11.0172 4.625C11.0172 7.11125 9.00346 9.125 6.51721 9.125ZM6.51721 7.625C8.17471 7.625 9.51721 6.2825 9.51721 4.625C9.51721 2.9675 8.17471 1.625 6.51721 1.625C4.85971 1.625 3.51721 2.9675 3.51721 4.625C3.51721 6.2825 4.85971 7.625 6.51721 7.625Z" fill="#FFFFFF"></path>
                                    </svg>